<?xml version="1.0" encoding="UTF-8" standalone="no"?>
<!-- Created with Inkscape (http://www.inkscape.org/) -->

<svg
   width="159.20576mm"
   height="77.972496mm"
   viewBox="0 0 159.20576 77.972496"
   version="1.1"
   id="svg1"
   xmlns:inkscape="http://www.inkscape.org/namespaces/inkscape"
   xmlns:sodipodi="http://sodipodi.sourceforge.net/DTD/sodipodi-0.dtd"
   xmlns="http://www.w3.org/2000/svg"
   xmlns:svg="http://www.w3.org/2000/svg">
  <sodipodi:namedview
     id="namedview1"
     pagecolor="#ffffff"
     bordercolor="#000000"
     borderopacity="0.25"
     inkscape:showpageshadow="2"
     inkscape:pageopacity="0.0"
     inkscape:pagecheckerboard="0"
     inkscape:deskcolor="#d1d1d1"
     inkscape:document-units="mm">
    <inkscape:page
       x="-3.2332849e-22"
       y="0"
       width="159.20576"
       height="77.972496"
       id="page2"
       margin="0"
       bleed="0" />
  </sodipodi:namedview>
  <defs
     id="defs1" />
  <g
     inkscape:label="Layer 1"
     inkscape:groupmode="layer"
     id="layer1"
     transform="translate(-13.918132,-11.414352)">
    <text
       xml:space="preserve"
       style="font-style:normal;font-variant:normal;font-weight:normal;font-stretch:normal;font-size:24.3681px;font-family:Futura;-inkscape-font-specification:'Futura, Normal';font-variant-ligatures:normal;font-variant-caps:normal;font-variant-numeric:normal;font-variant-east-asian:normal;writing-mode:lr-tb;direction:ltr;fill:#ffffff;fill-opacity:1;stroke-width:2.03066"
       x="12.633095"
       y="56.053371"
       id="text1"
       inkscape:export-filename="text1.png"
       inkscape:export-xdpi="96"
       inkscape:export-ydpi="96"><tspan
         sodipodi:role="line"
         id="tspan1"
         style="font-style:normal;font-variant:normal;font-weight:normal;font-stretch:normal;font-size:24.3681px;font-family:Futura;-inkscape-font-specification:'Futura, Normal';font-variant-ligatures:normal;font-variant-caps:normal;font-variant-numeric:normal;font-variant-east-asian:normal;fill:#ffffff;fill-opacity:1;stroke-width:2.03066"
         x="12.633095"
         y="56.053371">OneGenomics</tspan></text>
    <ellipse
       style="fill:none;stroke:#ffffff;stroke-width:2.642;stroke-dasharray:none;stroke-opacity:1"
       id="path3"
       cx="134.84393"
       cy="50.4006"
       rx="36.958969"
       ry="37.665249" />
    <circle
       style="fill:#ffffff;fill-opacity:1;stroke:#ffffff;stroke-width:0.542289;stroke-dasharray:none;stroke-opacity:1"
       id="path4"
       cx="145.5134"
       cy="39.716743"
       r="1.8521581" />
    <circle
       style="fill:#ffffff;fill-opacity:1;stroke:#ffffff;stroke-width:0.542289;stroke-dasharray:none;stroke-opacity:1"
       id="path4-8"
       cx="126.41309"
       cy="28.305458"
       r="1.8521581" />
    <circle
       style="fill:#ffffff;fill-opacity:1;stroke:#ffffff;stroke-width:0.542289;stroke-dasharray:none;stroke-opacity:1"
       id="path4-8-9"
       cx="142.00233"
       cy="24.894703"
       r="1.8521581" />
    <path
       style="fill:#ffffff;fill-opacity:1;stroke:none;stroke-width:0;stroke-dasharray:none;stroke-opacity:1"
       id="path7"
       d="m 123.09362,76.175911 c 2.47369,-0.170156 4.9515,-0.25138 7.43017,-0.311478 4.31188,-0.08902 8.62506,-0.08101 12.93756,-0.05719 3.04628,0.01151 6.09269,0.05329 9.13842,-0.01654 1.37398,-0.0072 2.73883,-0.175342 4.10646,-0.286072 0.28614,-0.04353 0.89216,0.014 1.12412,-0.217168 0.0477,-0.04755 0.0714,-0.114286 0.10703,-0.171429 -1.13757,-0.755366 -2.25925,-1.535218 -3.41271,-2.266095 -0.0755,-0.04785 -0.17478,-0.03815 -0.26102,-0.06174 -0.38626,-0.105662 -0.7707,-0.218115 -1.15335,-0.336151 -0.37533,-0.115779 -1.86561,-0.607417 -2.14196,-0.698169 -3.06042,-1.038463 -6.11771,-2.101832 -9.26353,-2.858283 -0.82793,-0.199089 -1.6634,-0.365443 -2.4951,-0.548164 -4.74777,-1.026128 -9.59024,-1.474036 -14.42413,-1.858666 -2.50135,-0.190736 -5.00784,-0.294727 -7.51565,-0.342077 -0.90748,-0.04462 -1.81042,-0.147595 -2.71342,-0.243869 0.0825,0.201612 -0.3133,-0.219986 -0.23196,-0.169471 3.59587,2.233046 2.15489,2.396008 4.46759,1.909886 3.9029,-0.78967 7.88523,-1.129191 11.84393,-1.516517 6.11593,-0.582094 12.24539,-1.002194 18.37859,-1.350396 4.29209,-0.235474 8.59052,-0.305602 12.88831,-0.303604 1.51091,0.0016 3.02146,0.03368 4.5317,0.07484 0.44584,-0.01154 0.67284,0.175082 0.95844,-0.216094 0.24441,-0.586941 0.15883,-0.899316 -0.21613,-1.40975 -2.12007,-1.707491 -4.67881,-3.009855 -7.36423,-3.536323 -0.54251,-0.106357 -1.09163,-0.175654 -1.63744,-0.263482 -3.39589,-0.509778 -6.82559,-0.722665 -10.25373,-0.859513 -1.70843,-0.05451 -3.41736,-0.09634 -5.12645,-0.124666 0,0 3.14422,2.282494 3.14422,2.282494 v 0 c 1.63557,-0.04234 3.27187,-0.05734 4.90775,-0.01707 3.4003,0.09541 6.80683,0.27663 10.16401,0.858938 1.35976,0.279992 2.68532,0.548235 3.97479,1.075179 0.27738,0.113348 1.06731,0.540491 0.8157,0.377772 -0.72178,-0.466767 -3.84685,-2.289019 -2.22621,-1.30134 0.35213,0.289386 0.50185,0.402855 0.41113,0.866892 -0.13453,-0.139862 -0.52824,0.01111 -0.71267,-0.03159 -1.4321,0.0289 -2.86393,0.07066 -4.29592,0.10446 -4.20154,0.115517 -8.40191,0.280559 -12.59764,0.533162 -6.13867,0.397002 -12.27161,0.875609 -18.40521,1.343234 -4.10847,0.342744 -8.22479,0.671605 -12.31015,1.22868 -0.20768,0.03467 -0.951,0.132659 -1.20669,0.254108 -0.1224,0.05814 -0.42553,0.160163 -0.32222,0.247854 2.67256,2.268548 2.02727,2.173248 3.58527,2.283965 0.87126,0.05787 1.74234,0.12876 2.6161,0.134091 2.41359,-0.01331 4.82777,0.02482 7.23772,0.167794 4.79064,0.309689 9.5844,0.769794 14.27878,1.813734 0.84254,0.196795 1.68915,0.376899 2.52761,0.590383 3.21864,0.819513 6.34486,1.947027 9.47429,3.04868 1.00201,0.348253 2.00763,0.684374 3.01131,1.027446 1.47928,0.505643 3.08454,1.693469 -2.41676,-1.847765 0.0259,-0.0311 0.0879,-0.0541 0.0778,-0.0933 -0.002,-0.0065 -0.0771,0.04011 -0.22985,0.06989 -0.25177,0.04911 -0.51068,0.04886 -0.76315,0.09332 -1.30865,0.15749 -2.61625,0.344588 -3.93609,0.377669 -2.98835,0.140671 -5.97851,0.09422 -8.96929,0.124161 -4.30682,0.03694 -8.61373,0.06173 -12.92068,0.0752 -2.59843,0.01476 -5.19834,0.06794 -7.79607,0.03927 z" />
  </g>
</svg>
